<svg xmlns="http://www.w3.org/2000/svg" viewBox="0 0 24 24" width="24" height="24" fill="none" stroke-width="2" stroke-linecap="round" stroke-linejoin="round">
  <title>Hellfire</title>
  <g stroke="#f4f1ea" fill="none" stroke-linejoin="round">
  <path d="M6.6 14.9c-1.3-1.6-1.6-3.5-.8-5.2.3 1 .9 1.5 1.7 1.7-1-1.9-.6-4.1 1-5.6.1 1.1.6 1.9 1.3 2.3-.6-2.2.4-4.4 2.2-5.7 1.4 1.9 1 3.5.3 5 .9-.4 1.5-1.1 1.7-2.1 1.3 1.4 2 3.1 1.7 4.9.8-.3 1.3-.8 1.5-1.6.8 1.6.5 3.3-.7 4.6"></path>
  <path d="M6.9 14.5c.1 1.7.7 3.1 1.8 4 .3.2.4.5.4.9V21a.9.9 0 0 0 .9.9h4a.9.9 0 0 0 .9-.9v-1.6c0-.4.1-.7.4-.9 1.1-.9 1.7-2.3 1.8-4"></path>
  <path d="M10 21v-1.9M12 21v-1.9M14 21v-1.9"></path>
  </g>
  <circle cx="9.7" cy="14.2" r="1.5" fill="#f4f1ea" stroke="none"></circle>
  <circle cx="14.3" cy="14.2" r="1.5" fill="#f4f1ea" stroke="none"></circle>
  <path d="M12 15.9l-1 2h2z" fill="#f4f1ea" stroke="none"></path>
</svg>