<svg xmlns="http://www.w3.org/2000/svg" viewBox="0 0 24 24" width="24" height="24" stroke-linecap="round" stroke-linejoin="round">
  <title>Deafened</title>
  <circle cx="12" cy="12" r="11.95" fill="#050302"/>
  <circle cx="12" cy="12" r="10.7" fill="#120c09" stroke="#96a8be" stroke-width="1.5"/>
  <g transform="translate(12 12) scale(0.66) translate(-12 -12)">
    <path d="M8.6 20.4 C6.6 20.4 6 18.4 7.1 16.8 C8 15.4 7.7 13.4 7.7 11.2 C7.7 6.8 10.6 3.8 14.1 3.8 C17.5 3.8 19.9 6.6 19.9 9.9 C19.9 12.8 17.9 13.8 17 15.4 C16.1 17.1 16.5 20.4 12.8 20.4" fill="none" stroke="#120c09" stroke-width="4.4"/>
    <path d="M11.4 11.2 C11.4 8.9 12.6 7.6 14.1 7.6 C15.6 7.6 16.5 8.7 16.5 10 C16.5 11.4 15.2 11.8 14.5 13" fill="none" stroke="#120c09" stroke-width="3.9"/>
    <path d="M8.6 20.4 C6.6 20.4 6 18.4 7.1 16.8 C8 15.4 7.7 13.4 7.7 11.2 C7.7 6.8 10.6 3.8 14.1 3.8 C17.5 3.8 19.9 6.6 19.9 9.9 C19.9 12.8 17.9 13.8 17 15.4 C16.1 17.1 16.5 20.4 12.8 20.4" fill="none" stroke="#96a8be" stroke-width="2.9"/>
    <path d="M11.4 11.2 C11.4 8.9 12.6 7.6 14.1 7.6 C15.6 7.6 16.5 8.7 16.5 10 C16.5 11.4 15.2 11.8 14.5 13" fill="none" stroke="#96a8be" stroke-width="2.4"/>
    <path d="M4.4 21 L17.6 7.8" fill="none" stroke="#120c09" stroke-width="3.5"/>
    <path d="M4.4 21 L17.6 7.8" fill="none" stroke="#96a8be" stroke-width="2"/>
  </g>
</svg>
